<svg width="37" height="49" viewBox="0 0 37 49" fill="none" xmlns="http://www.w3.org/2000/svg">
  <path d="M24.3602 9.11628C26.8882 9.11628 28.9565 7.06512 28.9565 4.55814C28.9565 2.05116 26.8882 0 24.3602 0C21.8323 0 19.764 2.05116 19.764 4.55814C19.764 7.06512 21.8323 9.11628 24.3602 9.11628ZM16.087 40.7953L18.3851 30.7674L23.2112 35.3256V49H27.8074V31.907L22.9814 27.3488L24.3602 20.5116C27.3478 23.9302 31.9441 26.2093 37 26.2093V21.6512C32.6335 21.6512 28.9565 19.3721 27.118 16.1814L24.8199 12.5349C23.9006 11.1674 22.5217 10.2558 20.913 10.2558C20.2236 10.2558 19.764 10.4837 19.0745 10.4837L7.12422 15.4977V26.2093H11.7205V18.4605L15.8571 16.8651L12.1801 35.3256L0.919254 33.0465L0 37.6047L16.087 40.7953Z" fill="#1D3557"/>
</svg>
