<svg width="29" height="29" viewBox="0 0 29 29" fill="none" xmlns="http://www.w3.org/2000/svg">
  <g clip-path="url(#clip0_1_100)">
    <path d="M23.1275 15.6358C23.1758 15.2733 23.2 14.8987 23.2 14.5C23.2 14.1133 23.1758 13.7267 23.1154 13.3642L25.5683 11.455C25.7858 11.2858 25.8462 10.9596 25.7133 10.7179L23.3933 6.70624C23.2483 6.44041 22.9462 6.35583 22.6804 6.44041L19.7925 7.60041C19.1883 7.14124 18.5479 6.75458 17.835 6.46458L17.4 3.39541C17.3516 3.10541 17.11 2.89999 16.82 2.89999H12.18C11.89 2.89999 11.6604 3.10541 11.6121 3.39541L11.1771 6.46458C10.4641 6.75458 9.81164 7.15333 9.21955 7.60041L6.33164 6.44041C6.0658 6.34374 5.76372 6.44041 5.61872 6.70624L3.3108 10.7179C3.1658 10.9717 3.21414 11.2858 3.4558 11.455L5.90872 13.3642C5.8483 13.7267 5.79997 14.1254 5.79997 14.5C5.79997 14.8746 5.82414 15.2733 5.88455 15.6358L3.43164 17.545C3.21414 17.7142 3.15372 18.0404 3.28664 18.2821L5.60664 22.2937C5.75164 22.5596 6.05372 22.6442 6.31955 22.5596L9.20747 21.3996C9.81164 21.8587 10.4521 22.2454 11.165 22.5354L11.6 25.6046C11.6604 25.8946 11.89 26.1 12.18 26.1H16.82C17.11 26.1 17.3516 25.8946 17.3879 25.6046L17.8229 22.5354C18.5358 22.2454 19.1883 21.8587 19.7804 21.3996L22.6683 22.5596C22.9341 22.6562 23.2362 22.5596 23.3812 22.2937L25.7012 18.2821C25.8462 18.0162 25.7858 17.7142 25.5562 17.545L23.1275 15.6358ZM14.5 18.85C12.1075 18.85 10.15 16.8925 10.15 14.5C10.15 12.1075 12.1075 10.15 14.5 10.15C16.8925 10.15 18.85 12.1075 18.85 14.5C18.85 16.8925 16.8925 18.85 14.5 18.85Z" fill="#E63946"/>
  </g>
  <defs>
    <clipPath id="clip0_1_100">
      <rect width="29" height="29" fill="white"/>
    </clipPath>
  </defs>
</svg>
