<svg width="38" height="34" viewBox="0 0 38 34" fill="none" xmlns="http://www.w3.org/2000/svg">
  <path d="M35.3079 14.5083C35.0476 13.7645 34.341 13.281 33.5042 13.281H20.1344C19.279 13.281 18.591 13.7645 18.312 14.5083L15.653 22.1508L15.6715 32.3967C15.6715 33.1033 16.248 33.7355 16.9546 33.7355H18.1075C18.8141 33.7355 19.372 33.0289 19.372 32.3223V30.0165H34.248V32.3223C34.248 33.0289 34.8244 33.7355 35.5311 33.7355H36.6653C37.372 33.7355 37.9484 33.1033 37.9484 32.3967L37.967 29.8492V22.1508L35.3079 14.5083ZM20.1344 15.1405H33.5042L35.4195 20.719H18.2191L20.1344 15.1405ZM19.372 26.2975C18.3492 26.2975 17.5125 25.4607 17.5125 24.438C17.5125 23.4153 18.3492 22.5785 19.372 22.5785C20.3947 22.5785 21.2315 23.4153 21.2315 24.438C21.2315 25.4607 20.3947 26.2975 19.372 26.2975ZM34.248 26.2975C33.2253 26.2975 32.3885 25.4607 32.3885 24.438C32.3885 23.4153 33.2253 22.5785 34.248 22.5785C35.2707 22.5785 36.1075 23.4153 36.1075 24.438C36.1075 25.4607 35.2707 26.2975 34.248 26.2975Z" fill="#D08900"/>
  <path d="M23.0909 11.4215H24.9504V0.264465H10.0744V9.56199H0.776855V33.7355H2.63636V11.4215H11.9339V2.12397H23.0909V11.4215Z" fill="#D08900"/>
  <path d="M10.0744 15.1405H6.35535V18.8595H10.0744V15.1405Z" fill="#D08900"/>
  <path d="M19.372 3.98346H15.653V7.70247H19.372V3.98346Z" fill="#D08900"/>
  <path d="M10.0744 22.5785H6.35535V26.2975H10.0744V22.5785Z" fill="#D08900"/>
  <path d="M10.0744 30.0165H6.35535V33.7355H10.0744V30.0165Z" fill="#D08900"/>
</svg>
