<svg width="39" height="40" viewBox="0 0 39 40" fill="none" xmlns="http://www.w3.org/2000/svg">
  <path d="M39 7.66634L30.03 0L27.5145 3.03873L36.4845 10.7051L39 7.66634ZM11.466 3.03873L8.97 0L0 7.64647L2.5155 10.6852L11.466 3.03873ZM20.475 12.1946H17.55V24.1112L26.8125 29.7716L28.275 27.3287L20.475 22.6216V12.1946ZM19.5 4.25025C9.8085 4.25025 1.95 12.2542 1.95 22.1251C1.95 31.996 9.789 40 19.5 40C29.1915 40 37.05 31.996 37.05 22.1251C37.05 12.2542 29.1915 4.25025 19.5 4.25025ZM19.5 36.0278C11.9535 36.0278 5.85 29.8113 5.85 22.1251C5.85 14.4389 11.9535 8.22244 19.5 8.22244C27.0465 8.22244 33.15 14.4389 33.15 22.1251C33.15 29.8113 27.0465 36.0278 19.5 36.0278Z" fill="#D08900"/>
</svg>
